<?xml version="1.0" encoding="UTF-8"?>
<svg id="_图层_1" data-name="图层 1" xmlns="http://www.w3.org/2000/svg" viewBox="0 0 141.73 141.73">
  <defs>
    <style>
      .cls-1 {
        fill: #fff;
      }

      .cls-2 {
        fill: #0b318f;
      }

      .cls-3 {
        fill: none;
        stroke: #0b318f;
        stroke-linecap: round;
        stroke-linejoin: round;
        stroke-width: 8px;
      }
    </style>
  </defs>
  <rect class="cls-1" width="141.73" height="141.73" rx="18.8" ry="18.8"/>
  <path class="cls-3" d="M61.96,23.59h53.42"/>
  <path class="cls-3" d="M61.96,54.75h53.42"/>
  <path class="cls-3" d="M61.96,85.91h53.42"/>
  <circle class="cls-3" cx="35.25" cy="54.75" r="8.9"/>
  <circle class="cls-3" cx="35.25" cy="85.91" r="8.9"/>
  <path class="cls-3" d="M26.35,23.59l6.68,6.68,13.35-13.35"/>
  <rect class="cls-2" x="0" y="104.14" width="141.73" height="37.59" rx="18.8" ry="18.8"/>
  <g>
    <path class="cls-1" d="M25.59,118.57c-.06,1.08-.55,4.07-.75,5.17l-.9,4.97h-4.77l-2.83-14.25h3.47l1.41,7.31c.31,1.62,.47,2.76,.55,4.04h.18c.13-1.26,.33-2.34,.68-4.04l1.52-7.31h3.23l1.59,7.31c.37,1.62,.57,2.94,.66,4.04h.18c.05-1.11,.22-2.41,.49-4.04l1.24-7.31h3.43l-2.83,14.25h-4.57l-1.02-5.04c-.2-1-.73-4-.79-5.1h-.18Z"/>
    <path class="cls-1" d="M47.84,121.59c0,5.11-2.5,7.31-6.06,7.31s-6.06-2.19-6.06-7.31,2.5-7.31,6.06-7.31,6.06,2.19,6.06,7.31Zm-3.56,0c0-3.62-.9-4.93-2.5-4.93s-2.5,1.32-2.5,4.93,.9,4.93,2.5,4.93,2.5-1.32,2.5-4.93Z"/>
    <path class="cls-1" d="M56.82,128.71l-2.14-5.21h-1.37v5.21h-3.29v-14.25h4.8c2.94,0,5.02,1.33,5.02,4.18,0,2.03-.88,3.21-2.28,3.82l3.07,6.25h-3.82Zm-3.51-7.63h1.17c1.3,0,2.08-.57,2.08-2.08s-.79-2.16-2.08-2.16h-1.17v4.24Z"/>
    <path class="cls-1" d="M65.7,118.3c0,.8-.05,1.52-.13,2.32h.07c.46-.79,.99-1.61,1.53-2.32l3.03-3.83h4.11l-5.35,5.92,5.37,8.33h-4.07l-3.51-5.92-1.06,1.17v4.75h-3.32v-14.25h3.32v3.83Z"/>
    <path class="cls-1" d="M79.27,116.93v3.73h4.75v2.37h-4.75v5.68h-3.29v-14.25h8.57v2.46h-5.28Z"/>
    <path class="cls-1" d="M95.2,126.15v2.56h-8.82v-14.25h3.38v11.69h5.44Z"/>
    <path class="cls-1" d="M108.24,121.59c0,5.11-2.5,7.31-6.06,7.31s-6.06-2.19-6.06-7.31,2.5-7.31,6.06-7.31,6.06,2.19,6.06,7.31Zm-3.56,0c0-3.62-.9-4.93-2.5-4.93s-2.5,1.32-2.5,4.93,.9,4.93,2.5,4.93,2.5-1.32,2.5-4.93Z"/>
    <path class="cls-1" d="M118.21,118.57c-.06,1.08-.55,4.07-.75,5.17l-.9,4.97h-4.77l-2.83-14.25h3.47l1.41,7.31c.31,1.62,.47,2.76,.55,4.04h.18c.13-1.26,.33-2.34,.68-4.04l1.52-7.31h3.23l1.59,7.31c.37,1.62,.57,2.94,.66,4.04h.18c.05-1.11,.22-2.41,.49-4.04l1.24-7.31h3.43l-2.83,14.25h-4.57l-1.02-5.04c-.2-1-.73-4-.79-5.1h-.18Z"/>
  </g>
</svg>