<?xml version="1.0" encoding="UTF-8"?>
<svg id="_图层_1" data-name="图层 1" xmlns="http://www.w3.org/2000/svg" viewBox="0 0 141.85 141.73">
  <defs>
    <style>
      .cls-1 {
        fill: #fff;
      }

      .cls-2 {
        fill: #0b318f;
      }

      .cls-3 {
        fill: none;
        stroke: #fff;
        stroke-linecap: round;
        stroke-linejoin: round;
        stroke-width: 8px;
      }
    </style>
  </defs>
  <rect class="cls-1" y="0" width="141.73" height="141.73" rx="17.01" ry="17.01"/>
  <rect class="cls-2" x="4.37" y="3.98" width="133.23" height="112.67" rx="14.17" ry="14.17"/>
  <path class="cls-3" d="M61.96,27.59h53.42"/>
  <path class="cls-3" d="M61.96,58.75h53.42"/>
  <path class="cls-3" d="M61.96,89.91h53.42"/>
  <circle class="cls-3" cx="35.25" cy="58.75" r="8.9"/>
  <circle class="cls-3" cx="35.25" cy="89.91" r="8.9"/>
  <path class="cls-3" d="M26.35,27.59l6.68,6.68,13.35-13.35"/>
  <g>
    <path class="cls-2" d="M33.56,127.1c-.04,.87-.44,3.28-.6,4.16l-.72,4h-3.84l-2.28-11.46h2.79l1.13,5.88c.25,1.31,.38,2.22,.44,3.25h.15c.1-1.01,.26-1.88,.54-3.25l1.22-5.88h2.6l1.28,5.88c.29,1.31,.46,2.37,.53,3.25h.15c.04-.9,.18-1.94,.4-3.25l1-5.88h2.76l-2.28,11.46h-3.67l-.82-4.06c-.16-.81-.59-3.22-.63-4.1h-.15Z"/>
    <path class="cls-2" d="M51.46,129.52c0,4.11-2.01,5.88-4.88,5.88s-4.88-1.76-4.88-5.88,2.01-5.88,4.88-5.88,4.88,1.76,4.88,5.88Zm-2.87,0c0-2.91-.72-3.97-2.01-3.97s-2.01,1.06-2.01,3.97,.72,3.97,2.01,3.97,2.01-1.06,2.01-3.97Z"/>
    <path class="cls-2" d="M58.68,135.25l-1.72-4.19h-1.1v4.19h-2.64v-11.46h3.86c2.37,0,4.04,1.07,4.04,3.37,0,1.63-.71,2.59-1.84,3.07l2.47,5.03h-3.07Zm-2.82-6.14h.94c1.04,0,1.68-.46,1.68-1.67s-.63-1.73-1.68-1.73h-.94v3.41Z"/>
    <path class="cls-2" d="M65.82,126.88c0,.65-.04,1.22-.1,1.87h.06c.37-.63,.79-1.29,1.23-1.87l2.44-3.09h3.31l-4.31,4.76,4.32,6.7h-3.28l-2.82-4.76-.85,.94v3.82h-2.67v-11.46h2.67v3.09Z"/>
    <path class="cls-2" d="M76.74,125.78v3h3.82v1.91h-3.82v4.57h-2.64v-11.46h6.89v1.98h-4.25Z"/>
    <path class="cls-2" d="M89.55,133.2v2.06h-7.1v-11.46h2.72v9.4h4.38Z"/>
    <path class="cls-2" d="M100.04,129.52c0,4.11-2.01,5.88-4.88,5.88s-4.88-1.76-4.88-5.88,2.01-5.88,4.88-5.88,4.88,1.76,4.88,5.88Zm-2.87,0c0-2.91-.72-3.97-2.01-3.97s-2.01,1.06-2.01,3.97,.72,3.97,2.01,3.97,2.01-1.06,2.01-3.97Z"/>
    <path class="cls-2" d="M108.06,127.1c-.04,.87-.44,3.28-.6,4.16l-.72,4h-3.84l-2.28-11.46h2.79l1.13,5.88c.25,1.31,.38,2.22,.44,3.25h.15c.1-1.01,.26-1.88,.54-3.25l1.22-5.88h2.6l1.28,5.88c.29,1.31,.46,2.37,.53,3.25h.15c.04-.9,.18-1.94,.4-3.25l1-5.88h2.76l-2.28,11.46h-3.67l-.82-4.06c-.16-.81-.59-3.22-.63-4.1h-.15Z"/>
  </g>
</svg>